<?xml version="1.0" encoding="utf-8"?>
<!DOCTYPE svg PUBLIC "-//W3C//DTD SVG 1.1//EN" "http://www.w3.org/Graphics/SVG/1.1/DTD/svg11.dtd">
<svg version="1.1" id="Layer_1" xmlns="http://www.w3.org/2000/svg" xmlns:xlink="http://www.w3.org/1999/xlink" x="0px" y="0px"
	 width="14px" height="14px" viewBox="0 0 14 14" enable-background="new 0 0 14 14" xml:space="preserve">
<path fill="#FFFFFF" d="M12.396,11.899L7.991,7.546C8.702,6.783,9.146,5.77,9.146,4.647c0-2.354-1.916-4.27-4.271-4.27
	s-4.271,1.915-4.271,4.27s1.916,4.27,4.271,4.27c0.871,0,1.681-0.265,2.356-0.714l4.473,4.419L12.396,11.899z M1.604,4.647
	c0-1.803,1.467-3.27,3.271-3.27c1.803,0,3.271,1.467,3.271,3.27s-1.468,3.27-3.271,3.27C3.071,7.917,1.604,6.45,1.604,4.647z"/>
</svg>
